<svg width="14" height="14" viewBox="0 0 14 14" fill="none" xmlns="http://www.w3.org/2000/svg">
<g clip-path="url(#clip0_1_648)">
<path fill-rule="evenodd" clip-rule="evenodd" d="M0 6.56646C0 9.81291 2.35832 12.5126 5.44271 13.06V8.34371H3.80989V6.53H5.44271V5.07871C5.44271 3.44621 6.49479 2.53963 7.98282 2.53963C8.45416 2.53963 8.96255 2.612 9.43383 2.68437V4.35334H8.59948C7.80104 4.35334 7.61979 4.75221 7.61979 5.26046V6.53H9.36143L9.07135 8.34371H7.61979V13.06C10.7042 12.5126 13.0625 9.81347 13.0625 6.56646C13.0625 2.95483 10.1234 0 6.53125 0C2.93906 0 0 2.95483 0 6.56646Z" fill="white" fill-opacity="0.9"/>
</g>
<defs>
<clipPath id="clip0_1_648">
<rect width="13.0625" height="13.06" fill="white"/>
</clipPath>
</defs>
</svg>
