<svg width="14" height="14" viewBox="0 0 14 14" fill="none" xmlns="http://www.w3.org/2000/svg">
<g clip-path="url(#clip0_1_657)">
<path fill-rule="evenodd" clip-rule="evenodd" d="M1.65786e-07 1.12003C1.65786e-07 0.822976 0.118003 0.538095 0.328049 0.328049C0.538095 0.118003 0.822978 1.5002e-06 1.12003 1.5002e-06H12.285C12.4322 -0.0002395 12.578 0.0285585 12.7141 0.0847445C12.8501 0.140931 12.9738 0.223403 13.0779 0.327439C13.1821 0.431475 13.2647 0.555035 13.321 0.691036C13.3773 0.827036 13.4063 0.972816 13.4062 1.12003V12.2849C13.4064 12.4322 13.3775 12.578 13.3212 12.7141C13.265 12.8501 13.1825 12.9738 13.0784 13.0779C12.9743 13.1821 12.8507 13.2647 12.7147 13.321C12.5786 13.3773 12.4328 13.4063 12.2856 13.4062H1.12003C0.972893 13.4062 0.827199 13.3772 0.691271 13.3209C0.555344 13.2645 0.431846 13.182 0.327833 13.0779C0.223821 12.9738 0.141333 12.8503 0.0850823 12.7143C0.0288314 12.5784 -7.98862e-05 12.4327 1.65786e-07 12.2855V1.12003ZM5.30642 5.11143H7.12175V6.02305C7.38378 5.49899 8.05409 5.02734 9.06138 5.02734C10.9925 5.02734 11.4501 6.07119 11.4501 7.98645V11.5342H9.49587V8.42276C9.49587 7.33199 9.23384 6.71652 8.5684 6.71652C7.6452 6.71652 7.26129 7.38013 7.26129 8.42276V11.5342H5.30642V5.11143ZM1.95487 11.4507H3.90974V5.02734H1.95487V11.4507ZM4.18944 2.93231C4.19313 3.09969 4.16334 3.26612 4.10184 3.42183C4.04033 3.57754 3.94834 3.7194 3.83127 3.83908C3.7142 3.95876 3.5744 4.05385 3.42008 4.11876C3.26576 4.18368 3.10003 4.21712 2.93261 4.21712C2.76519 4.21712 2.59946 4.18368 2.44514 4.11876C2.29082 4.05385 2.15102 3.95876 2.03395 3.83908C1.91687 3.7194 1.82489 3.57754 1.76338 3.42183C1.70188 3.26612 1.67209 3.09969 1.67578 2.93231C1.68301 2.60377 1.8186 2.29112 2.05352 2.06132C2.28843 1.83153 2.60399 1.70285 2.93261 1.70285C3.26123 1.70285 3.57679 1.83153 3.8117 2.06132C4.04661 2.29112 4.18221 2.60377 4.18944 2.93231Z" fill="white" fill-opacity="0.9"/>
</g>
<defs>
<clipPath id="clip0_1_657">
<rect width="13.4062" height="13.4062" fill="white"/>
</clipPath>
</defs>
</svg>
