<svg width="13" height="15" viewBox="0 0 13 15" fill="none" xmlns="http://www.w3.org/2000/svg">
<g clip-path="url(#clip0_1_660)">
<path d="M11.3029 3.18524C11.2024 3.1333 11.1045 3.07634 11.0097 3.0146C10.7339 2.8323 10.481 2.61749 10.2565 2.37482C9.69484 1.73224 9.48506 1.08036 9.40779 0.623956H9.41089C9.34635 0.245114 9.37303 0 9.37706 0H6.81876V9.89084C6.81876 10.0236 6.81876 10.1549 6.81318 10.2846C6.81318 10.3007 6.81163 10.3156 6.81069 10.333C6.81069 10.3401 6.81069 10.3476 6.80914 10.355V10.3606C6.78218 10.7155 6.66839 11.0582 6.47781 11.3589C6.28723 11.6595 6.02569 11.9087 5.71619 12.0845C5.39362 12.268 5.02879 12.3642 4.65767 12.3637C3.46572 12.3637 2.49969 11.3919 2.49969 10.1918C2.49969 8.99167 3.46572 8.0199 4.65767 8.0199C4.88331 8.01969 5.10754 8.05518 5.32208 8.12508L5.32517 5.52066C4.67393 5.43655 4.01231 5.4883 3.38205 5.67265C2.7518 5.85698 2.1666 6.16993 1.66336 6.59172C1.22242 6.97478 0.851709 7.43184 0.567926 7.94233C0.459933 8.12849 0.0524785 8.87656 0.00313809 10.0907C-0.027895 10.7797 0.179091 11.4937 0.277774 11.7888V11.795C0.339838 11.9687 0.580338 12.5617 0.972273 13.0615C1.28832 13.4625 1.66172 13.8146 2.08044 14.1068V14.1006L2.08665 14.1068C3.32514 14.9482 4.69833 14.893 4.69833 14.893C4.93603 14.8834 5.73232 14.893 6.6366 14.4646C7.63957 13.9896 8.21056 13.2818 8.21056 13.2818C8.57534 12.8589 8.8654 12.377 9.06829 11.8567C9.29979 11.2483 9.37706 10.5185 9.37706 10.2269V4.97955C9.4081 4.99817 9.82145 5.27152 9.82145 5.27152C9.82145 5.27152 10.417 5.65315 11.346 5.90168C12.0127 6.07853 12.9107 6.11576 12.9107 6.11576V3.5765C12.596 3.61063 11.957 3.51135 11.3029 3.18524Z" fill="white" fill-opacity="0.9"/>
</g>
<defs>
<clipPath id="clip0_1_660">
<rect width="12.9107" height="14.8938" fill="white"/>
</clipPath>
</defs>
</svg>
