<svg width="14" height="14" viewBox="0 0 14 14" fill="none" xmlns="http://www.w3.org/2000/svg">
<g clip-path="url(#clip0_1_654)">
<path d="M8.16885 6.87823L6.53115 6.11406C6.38823 6.04771 6.27083 6.12208 6.27083 6.28031V7.71969C6.27083 7.87792 6.38823 7.95229 6.53115 7.88594L8.16813 7.12177C8.31177 7.05469 8.31177 6.94531 8.16885 6.87823ZM7 0C3.13396 0 0 3.13396 0 7C0 10.866 3.13396 14 7 14C10.866 14 14 10.866 14 7C14 3.13396 10.866 0 7 0ZM7 9.84375C3.41688 9.84375 3.35417 9.52073 3.35417 7C3.35417 4.47927 3.41688 4.15625 7 4.15625C10.5831 4.15625 10.6458 4.47927 10.6458 7C10.6458 9.52073 10.5831 9.84375 7 9.84375Z" fill="white" fill-opacity="0.9"/>
</g>
<defs>
<clipPath id="clip0_1_654">
<rect width="14" height="14" fill="white"/>
</clipPath>
</defs>
</svg>
